<svg xmlns="http://www.w3.org/2000/svg" width="121.849" height="129.095" viewBox="0 0 121.849 129.095">
  <g id="box" transform="translate(0.166 0.501)">
    <line id="Line_16" data-name="Line 16" x2="121" transform="translate(0 127.595)" fill="none" stroke="#d11212" stroke-width="2"/>
    <path id="Path_18" data-name="Path 18" d="M41.358,1022.949h0a1.9,1.9,0,0,0-.612.155L1.139,1040.3a1.888,1.888,0,0,0-.361,3.26l16.993,12.354L.777,1068.272a1.889,1.889,0,0,0,.361,3.26l17.746,7.708v27.674a3.863,3.863,0,0,0,1.173,2.6l39.585,16.9a1.894,1.894,0,0,0,.236.071h.052c.024.013.049.026.074.038q.073.022.148.037H60.2a1.826,1.826,0,0,0,.369,0c.055-.01.109-.023.162-.038h.074c.047-.011.094-.023.14-.038s.119-.037.177-.061l.074-.037,39.592-16.9a3.9,3.9,0,0,0,1.173-2.6v-27.836l17.746-7.707a1.889,1.889,0,0,0,.361-3.253l-17.65-12.833-.015-.038-.015-.038,15.931-11.58a1.888,1.888,0,0,0-.362-3.26l-39.6-17.2a1.864,1.864,0,0,0-1.866.2L59.6,1035.63,42.6,1023.276a1.889,1.889,0,0,0-1.246-.362Zm-.1,4.057,15.422,11.218-35.794,15.3L5.675,1042.465l35.588-15.46Zm36.583.061,35.588,15.459L98.91,1053.08l-35.794-15.3,14.729-10.71Zm-17.421,13.667,35.418,15.15-35.418,15.149-11.4-4.875L34.381,1059.9l-9.4-4.02,35.44-15.15Zm39.593,17.48,15.157,11.019-35.588,15.459-15.371-11.174Zm-79.045.061,11.926,5.1,14.641,6.262,9.22,3.947-15.5,11.269L5.675,1069.389l15.3-11.115ZM62.313,1076.8l15.931,11.58a1.888,1.888,0,0,0,1.859.208q9.042-3.928,18.085-7.855v25.8l-35.875,15.312V1076.8Zm-3.776.147v44.9l-35.875-15.312v-25.645l18.085,7.855a1.888,1.888,0,0,0,1.859-.208l15.931-11.587Zm18.786,20.917H77.3a1.9,1.9,0,0,0-.671.162l-10.046,4.293a1.89,1.89,0,0,0,1.49,3.474l10.038-4.293a1.888,1.888,0,0,0-.789-3.643Zm10.038,2.574h-.022a1.883,1.883,0,0,0-.671.162L76.629,1104.9l-10.046,4.292a1.888,1.888,0,1,0,1.49,3.466l10.038-4.285,10.038-4.292a1.889,1.889,0,0,0-.789-3.644Z" transform="translate(0.338 -1022.91)" fill="#919191" stroke="#707070" stroke-width="1" fill-rule="evenodd"/>
  </g>
</svg>
