<svg id="building" xmlns="http://www.w3.org/2000/svg" width="114" height="120.592" viewBox="0 0 114 120.592">
  <line id="Line_17" data-name="Line 17" x2="114" transform="translate(0 119.592)" fill="none" stroke="#d11212" stroke-width="2"/>
  <path id="Path_17" data-name="Path 17" d="M111.667,99.912H106V27.24h5.672a1.771,1.771,0,0,0,1.418-2.836L99.437,4.729a1.612,1.612,0,0,0-1.418-.709h-82.6A1.12,1.12,0,0,0,14,4.729L.355,24.581a1.771,1.771,0,0,0,1.418,2.836H7.445v72.672H1.773a1.772,1.772,0,1,0,0,3.545H111.667a1.675,1.675,0,0,0,1.772-1.772A1.941,1.941,0,0,0,111.667,99.912ZM16.307,7.388H97.133L108.3,23.695H5.14ZM39.881,99.912V76.338H54.947V99.912Zm18.611,0V76.338H73.559V99.912Zm18.611,0V74.565a1.675,1.675,0,0,0-1.772-1.772H38.109a1.675,1.675,0,0,0-1.772,1.772V99.912H10.99V27.24H102.45v72.5C102.45,99.912,77.1,99.912,77.1,99.912Zm-1.772-69.3H60.088a1.675,1.675,0,0,0-1.772,1.772V46.56a1.675,1.675,0,0,0,1.772,1.772H75.331A1.675,1.675,0,0,0,77.1,46.56V32.38A1.675,1.675,0,0,0,75.331,30.608Zm-1.772,14.18H61.86V34.153h11.7ZM53.352,30.608H38.109a1.675,1.675,0,0,0-1.772,1.772V46.56a1.675,1.675,0,0,0,1.772,1.772H53.352a1.675,1.675,0,0,0,1.772-1.772V32.38A1.776,1.776,0,0,0,53.352,30.608ZM51.58,44.787h-11.7V34.153h11.7ZM31.2,30.608H15.953A1.675,1.675,0,0,0,14.18,32.38V46.56a1.675,1.675,0,0,0,1.772,1.772H31.2a1.675,1.675,0,0,0,1.772-1.772V32.38A1.675,1.675,0,0,0,31.2,30.608Zm-1.772,14.18h-11.7V34.153h11.7Zm68.064-14.18H82.244a1.675,1.675,0,0,0-1.772,1.772V46.56a1.675,1.675,0,0,0,1.772,1.772H97.487A1.675,1.675,0,0,0,99.26,46.56V32.38A1.776,1.776,0,0,0,97.487,30.608Zm-1.772,14.18h-11.7V34.153h11.7ZM53.352,51.7H38.109a1.675,1.675,0,0,0-1.772,1.772V67.83A1.675,1.675,0,0,0,38.109,69.6H53.352a1.675,1.675,0,0,0,1.772-1.772V53.473A1.776,1.776,0,0,0,53.352,51.7ZM51.58,66.057h-11.7V55.245h11.7ZM75.331,51.7H60.088a1.675,1.675,0,0,0-1.772,1.772V67.83A1.675,1.675,0,0,0,60.088,69.6H75.331A1.675,1.675,0,0,0,77.1,67.83V53.473A1.675,1.675,0,0,0,75.331,51.7ZM73.559,66.057H61.86V55.245h11.7ZM97.487,51.7H82.244a1.675,1.675,0,0,0-1.772,1.772V67.83A1.675,1.675,0,0,0,82.244,69.6H97.487A1.675,1.675,0,0,0,99.26,67.83V53.473A1.776,1.776,0,0,0,97.487,51.7ZM95.715,66.057h-11.7V55.245h11.7ZM31.2,51.7H15.953a1.675,1.675,0,0,0-1.772,1.772V67.83A1.675,1.675,0,0,0,15.953,69.6H31.2a1.675,1.675,0,0,0,1.772-1.772V53.473A1.675,1.675,0,0,0,31.2,51.7ZM29.424,66.057h-11.7V55.245h11.7Zm68.064,6.735H82.244a1.675,1.675,0,0,0-1.772,1.772V88.923A1.675,1.675,0,0,0,82.244,90.7H97.487a1.675,1.675,0,0,0,1.772-1.772V74.565A1.776,1.776,0,0,0,97.487,72.793ZM95.715,87.15h-11.7V76.338h11.7ZM31.2,72.793H15.953a1.675,1.675,0,0,0-1.772,1.772V88.923A1.675,1.675,0,0,0,15.953,90.7H31.2a1.675,1.675,0,0,0,1.772-1.772V74.565A1.675,1.675,0,0,0,31.2,72.793ZM29.424,87.15h-11.7V76.338h11.7Z" transform="translate(0.28 -3.974)" fill="#919191"/>
</svg>
