<svg id="facebook-icon" xmlns="http://www.w3.org/2000/svg" width="43.228" height="43.237" viewBox="0 0 43.228 43.237">
  <path id="Path_5" data-name="Path 5" d="M189.549,116.007a.856.856,0,0,1,.865-.865h5.266v-4.981h-5.309a.86.86,0,0,1-.865-.856l-.026-3.935v-.009a2.866,2.866,0,0,1,2.862-2.862h3.329V97h-7.523a4.167,4.167,0,0,0-4.159,4.159l.043,8.129a.856.856,0,0,1-.865.865H178.1v4.981h5.1a.862.862,0,0,1,.865.865l.069,14.64h5.491Z" transform="translate(-163.218 -89.131)" fill="none"/>
  <path id="Path_6" data-name="Path 6" d="M63.884,26H27.894A1.893,1.893,0,0,0,26,27.894V63.875a1.893,1.893,0,0,0,1.894,1.894H43.459L43.39,51.994H38.279a.867.867,0,0,1-.865-.865v-6.71a.867.867,0,0,1,.865-.865h5.067l-.035-7.264A5.89,5.89,0,0,1,49.2,30.4h8.388a.867.867,0,0,1,.865.865v7.221a.867.867,0,0,1-.865.865H53.395a1.137,1.137,0,0,0-1.133,1.133l.017,3.07h5.309a.867.867,0,0,1,.865.865v6.71a.867.867,0,0,1-.865.865H52.331l.078,13.775H63.884a1.893,1.893,0,0,0,1.894-1.894V27.894A1.893,1.893,0,0,0,63.884,26Z" transform="translate(-24.271 -24.271)" fill="none"/>
  <path id="Path_7" data-name="Path 7" d="M45.613,6H9.623A3.628,3.628,0,0,0,6,9.623V45.6a3.63,3.63,0,0,0,3.623,3.632H45.6a3.628,3.628,0,0,0,3.623-3.623V9.623A3.615,3.615,0,0,0,45.613,6ZM26.849,32.867A.867.867,0,0,0,25.984,32h-5.1V27.022h5.067a.893.893,0,0,0,.614-.251.856.856,0,0,0,.251-.614l-.043-8.128a4.167,4.167,0,0,1,4.159-4.159h7.523V19.36H35.124a2.86,2.86,0,0,0-2.862,2.862v.009l.026,3.935a.86.86,0,0,0,.865.856h5.3V32H33.187a.893.893,0,0,0-.614.251.856.856,0,0,0-.251.614L32.409,47.5H26.918ZM47.507,45.613a1.893,1.893,0,0,1-1.894,1.894H34.138l-.078-13.775h5.258a.867.867,0,0,0,.865-.865v-6.71a.867.867,0,0,0-.865-.865h-5.3L34,22.222a1.137,1.137,0,0,1,1.133-1.133h4.194a.867.867,0,0,0,.865-.865V13a.867.867,0,0,0-.865-.865H30.939a5.9,5.9,0,0,0-5.889,5.889l.035,7.264H20.017a.867.867,0,0,0-.865.865v6.71a.867.867,0,0,0,.865.865h5.111L25.2,47.507H9.632a1.893,1.893,0,0,1-1.894-1.894V9.623A1.88,1.88,0,0,1,9.623,7.729H45.6A1.893,1.893,0,0,1,47.5,9.623v35.99Z" transform="translate(-6 -6)" fill="#919191"/>
</svg>
