<svg xmlns="http://www.w3.org/2000/svg" width="110.839" height="125.136" viewBox="0 0 110.839 125.136">
  <g id="masks" transform="translate(0.339 0.543)">
    <line id="Line_15" data-name="Line 15" x2="110" transform="translate(0 123.593)" fill="none" stroke="#d11212" stroke-width="2"/>
    <path id="Path_19" data-name="Path 19" d="M26.738,46.775a1.608,1.608,0,0,0,0-1.437,9.909,9.909,0,0,0-17.781,0,1.608,1.608,0,0,0,0,1.437,9.909,9.909,0,0,0,17.781,0ZM12.25,46.056a6.682,6.682,0,0,1,11.2,0,6.682,6.682,0,0,1-11.2,0Zm32-6.251a9.9,9.9,0,0,0-8.891,5.532,1.609,1.609,0,0,0,0,1.438,9.91,9.91,0,0,0,17.781,0,1.608,1.608,0,0,0,0-1.437,9.9,9.9,0,0,0-8.89-5.533Zm0,9.285a6.677,6.677,0,0,1-5.6-3.033,6.682,6.682,0,0,1,11.2,0,6.677,6.677,0,0,1-5.6,3.034Zm1.891,14.426a1.61,1.61,0,0,0-1.652-.07,28.279,28.279,0,0,1-13.439,3.418H31a28.288,28.288,0,0,1-13.387-3.418A1.609,1.609,0,0,0,15.238,65a16.17,16.17,0,0,0,5.05,10.356,15.712,15.712,0,0,0,10.565,4.295h.191A16.056,16.056,0,0,0,46.856,65a1.609,1.609,0,0,0-.718-1.489ZM30.893,76.437A12.836,12.836,0,0,1,19.078,67.7a31.4,31.4,0,0,0,11.912,2.38h.057A31.4,31.4,0,0,0,43.022,67.7a12.752,12.752,0,0,1-12.129,8.738ZM107.978,40.7a3.712,3.712,0,0,0-3.73-.031,52.049,52.049,0,0,1-25.826,6.719,51.357,51.357,0,0,1-16.328-2.794V21.715A3.753,3.753,0,0,0,56.5,18.441a52.1,52.1,0,0,1-25.458,6.721h-.368A52.111,52.111,0,0,1,5.6,18.445,3.754,3.754,0,0,0,0,21.715V62.631a39.766,39.766,0,0,0,15.669,31.6,25.478,25.478,0,0,0,30.757,0c.712-.538,1.4-1.1,2.071-1.684a39.679,39.679,0,0,0,14.917,23.909,25.478,25.478,0,0,0,30.757,0,39.766,39.766,0,0,0,15.669-31.6V43.939A3.721,3.721,0,0,0,107.978,40.7ZM61.913,66.363a6.608,6.608,0,0,1,3.679-1.116,6.678,6.678,0,0,1,5.6,3.033,6.67,6.67,0,0,1-9.767,1.565Q61.744,68.121,61.913,66.363Zm-17.427,25.3a22.261,22.261,0,0,1-26.879,0A36.532,36.532,0,0,1,3.218,62.631V21.715a.518.518,0,0,1,.265-.462.544.544,0,0,1,.272-.076.532.532,0,0,1,.264.073,55.34,55.34,0,0,0,26.635,7.128h.391a55.33,55.33,0,0,0,27.036-7.134.513.513,0,0,1,.528.005.522.522,0,0,1,.267.465V62.631A36.532,36.532,0,0,1,44.486,91.665Zm62.134-6.809a36.532,36.532,0,0,1-14.389,29.033,22.261,22.261,0,0,1-26.879,0A36.459,36.459,0,0,1,51.306,89.846,39.869,39.869,0,0,0,60.648,73.2,9.9,9.9,0,0,0,74.483,69a1.609,1.609,0,0,0,0-1.438,9.906,9.906,0,0,0-12.39-4.893c0-.013,0-.025,0-.038V47.98A54.517,54.517,0,0,0,78.4,50.6h.391a55.33,55.33,0,0,0,27.036-7.134.515.515,0,0,1,.527.005.522.522,0,0,1,.267.465ZM91.991,62.029A9.9,9.9,0,0,0,83.1,67.562,1.608,1.608,0,0,0,83.1,69a9.909,9.909,0,0,0,17.781,0,1.608,1.608,0,0,0,0-1.437A9.9,9.9,0,0,0,91.991,62.029Zm0,9.285a6.677,6.677,0,0,1-5.6-3.033,6.682,6.682,0,0,1,11.2,0,6.677,6.677,0,0,1-5.6,3.033Zm-13.2,14.161H78.6a15.712,15.712,0,0,0-10.565,4.295,16.17,16.17,0,0,0-5.05,10.356,1.609,1.609,0,0,0,2.37,1.558A28.287,28.287,0,0,1,78.74,98.267h.051a28.282,28.282,0,0,1,13.439,3.418,1.609,1.609,0,0,0,2.37-1.558A16.055,16.055,0,0,0,78.789,85.476Zm0,9.574h-.057a31.4,31.4,0,0,0-11.912,2.38,12.571,12.571,0,0,1,23.944,0,31.392,31.392,0,0,0-11.976-2.383Z" transform="translate(0.161 -17.96)" fill="#919191" stroke="#707070" stroke-width="1"/>
  </g>
</svg>
