<svg id="viber-icon" xmlns="http://www.w3.org/2000/svg" width="43.483" height="47.508" viewBox="0 0 43.483 47.508">
  <path id="Path_8" data-name="Path 8" d="M14.135,47.492a3.065,3.065,0,0,1-.933-.17c-1.49-.472-1.828-2.237-1.793-3.206l.006-3.819C1.056,36.769,1.292,25.2,1.408,19.584,1.548,12.767,3.017,8.134,6.035,5,13.43-2.054,33.666-1.223,39.882,4.72c4.21,3.809,5.835,11.883,4.552,22.717C43.173,38.176,35.886,40.1,33.49,40.734c-.2.051-.356.093-.468.13A38.96,38.96,0,0,1,20.1,41.947l-.4.476c-3.127,3.758-4.216,5.068-5.568,5.068Zm-1.482-8.877a.994.994,0,0,1,.741.957l-.008,4.582c-.012.429.121,1.19.421,1.285.6.188,1.162-.413,4.38-4.281l.725-.87a.963.963,0,0,1,.844-.352A37.149,37.149,0,0,0,32.4,38.988c.138-.047.34-.1.591-.168,2.293-.607,8.383-2.216,9.486-11.614,1.188-10.035-.247-17.7-3.937-21.037C33.081.953,13.9.231,7.429,6.4,4.808,9.124,3.511,13.336,3.385,19.624c-.117,5.653-.33,16.17,9.268,18.991Z" transform="translate(-1.38 0.016)" fill="#919191"/>
  <path id="Path_9" data-name="Path 9" d="M25.613,30.306a3.346,3.346,0,0,1-1.057-.174,1.054,1.054,0,0,1-.168-.073A36.129,36.129,0,0,1,15.07,24.7c-5.133-4.2-7.351-9.507-8.541-12.36-.235-.561-.429-1.028-.6-1.366C5.1,8.362,7.237,6.083,9.3,4.879A.931.931,0,0,1,9.458,4.8a2.573,2.573,0,0,1,3.265.674c.144.2.285.368.451.569a22.823,22.823,0,0,1,2.589,3.823,2.962,2.962,0,0,1-.579,3.718l-1.061.876A.761.761,0,0,0,14,14.91c.016,0,1.563,5.552,6.819,6.942-.071-.024.154-.055.219-.14L21.9,20.6a2.794,2.794,0,0,1,3.661-.593,0,0,0,0,1,0,0A24.519,24.519,0,0,1,29.859,23.2a2.628,2.628,0,0,1,.577,3.248.921.921,0,0,1-.059.134C29.327,28.493,27.593,30.306,25.613,30.306Zm-.3-2.014c1.125.239,2.465-1.129,3.281-2.577l.03-.065c.32-.636.008-.9-.095-.986a22.79,22.79,0,0,0-3.963-2.949.858.858,0,0,0-1.091.077L22.6,22.919a2.517,2.517,0,0,1-2.127.87c-6.6-1.731-8.345-8.272-8.416-8.549a2.646,2.646,0,0,1,.8-2.3l1.077-.891a1.015,1.015,0,0,0,.091-1.233A20.855,20.855,0,0,0,11.646,7.3c-.2-.241-.364-.445-.5-.633-.067-.081-.3-.372-.866-.067a.809.809,0,0,1-.083.04c-1.154.7-2.88,2.188-2.441,3.6.125.217.338.725.595,1.34,1.125,2.692,3.218,7.7,7.972,11.591a33.4,33.4,0,0,0,8.8,5.048,1.269,1.269,0,0,1,.186.077ZM23.85,15.75a.989.989,0,0,1-.974-.826,3.691,3.691,0,0,0-3.087-3.087.993.993,0,0,1-.86-1.1.983.983,0,0,1,1.091-.864A5.651,5.651,0,0,1,24.826,14.6a.989.989,0,0,1-.812,1.137A.794.794,0,0,1,23.85,15.75Z" transform="translate(2.886 4.419)" fill="#919191"/>
  <path id="Path_10" data-name="Path 10" d="M20.954,15.539a.988.988,0,0,1-.986-.943,6.827,6.827,0,0,0-6.849-6.964h0a.988.988,0,0,1-.01-1.977c.026.024,8.43.038,8.839,8.849A.988.988,0,0,1,21,15.539h-.049Z" transform="translate(9.116 5.556)" fill="#919191"/>
  <path id="Path_11" data-name="Path 11" d="M24.35,18.959a1.013,1.013,0,0,1-.154-.012.989.989,0,0,1-.824-1.129c.008-.049.733-5.06-2.524-8.537a11.977,11.977,0,0,0-8.327-3.4A.988.988,0,0,1,12.455,3.9a13.878,13.878,0,0,1,9.834,4.028c3.929,4.2,3.074,9.952,3.034,10.2a.983.983,0,0,1-.972.832Z" transform="translate(8.504 3.841)" fill="#919191"/>
</svg>
